<?xml version="1.0" encoding="UTF-8"?>
<svg id="Layer_1" data-name="Layer 1" xmlns="http://www.w3.org/2000/svg" version="1.1" viewBox="0 0 134 160">
  <defs>
    <style>
      .cls-1 {
        fill: none;
      }

      .cls-1, .cls-2 {
        stroke-width: 0px;
      }

      .cls-2 {
        fill: #fff;
      }
    </style>
  </defs>
  <path class="cls-1" d="M87.51,24.76h2.6l2.44,4.84h2.81l-2.52-5.17c1.68-.58,2.52-2.27,2.52-3.74,0-2.14-1.09-4.08-4.32-4.08h-6.05v12.99h2.52v-4.84ZM87.51,18.97h3.57c1.35,0,1.72.88,1.72,1.68,0,.88-.42,1.72-1.72,1.72h-3.57v-3.4Z"/>
  <path class="cls-1" d="M56.1,79.33c-1.04,1.42-2.28,2.69-3.7,3.78-3.25,2.49-7.41,4-11.94,4-6.09,0-11.49-2.71-14.95-6.9-.33-.41-.64-.81-.94-1.25,2.06,15.7,8.46,26.24,18.63,36.81.2.21.4.41.59.6.38.39.74.76,1.12,1.16,0-.02,0-.03,0-.04-.22-1.06-3.1-16.22,11.18-38.15Z"/>
  <path class="cls-1" d="M72.68,25.73c0-1.14-.55-2.43-2.02-2.98,1.13-.5,1.55-1.56,1.55-2.65,0-1.76-1.05-3.49-4.2-3.49h-5.72v12.99h5.97c3.23,0,4.41-2.02,4.41-3.87ZM64.78,18.93h3.23c1.35,0,1.64.71,1.64,1.35,0,.88-.63,1.42-1.98,1.42h-2.9v-2.77ZM64.78,24.05h3.07c1.85,0,2.26.88,2.26,1.68,0,.71-.42,1.51-1.76,1.51h-3.57v-3.2Z"/>
  <path class="cls-1" d="M59.85,45.86h2.47v-7.57c0-.3-.04-.67-.04-.97.17.3.38.76.54.97l5.17,7.57h2.23v-12.99h-2.48v7.48c0,.26.05.67.05.97-.17-.3-.39-.71-.55-.97l-5.03-7.48h-2.35v12.99Z"/>
  <polygon class="cls-1" points="54.11 29.6 56.59 29.6 56.59 24.52 61.38 16.57 58.56 16.57 55.37 21.87 52.18 16.57 49.36 16.57 54.15 24.52 54.11 29.6"/>
  <polygon class="cls-1" points="25.78 43.51 19.01 43.51 19.01 40.35 22.75 40.35 22.75 38 19.01 38 19.01 35.27 25.36 35.27 25.36 32.91 16.5 32.91 16.5 45.86 25.78 45.86 25.78 43.51"/>
  <path class="cls-1" d="M31.83,43.72c-1.27,0-2.27-.84-2.82-2.06l-2.27.88c.75,2.23,2.6,3.57,5.05,3.57,2.6,0,4.7-1.42,4.7-3.95,0-2.82-2.43-3.61-4.36-4.28-1.31-.43-2.35-.8-2.35-1.6s.62-1.22,1.72-1.22c1.22,0,1.85.58,2.23,1.35l2.27-.71c-.45-1.72-1.97-3.03-4.32-3.03-2.82,0-4.41,1.64-4.41,3.57,0,2.56,2.19,3.31,4.08,3.95,1.42.46,2.6.88,2.6,1.98s-.84,1.55-2.1,1.55Z"/>
  <path class="cls-1" d="M44.44,29.81c2.35,0,3.83-1.31,4.67-3.2l-2.31-.88c-.58.97-1.31,1.68-2.35,1.68-1.97,0-2.86-2.27-2.86-4.28s.67-4.28,2.86-4.28c1.14,0,1.72.54,2.39,1.55l2.27-1.01c-.59-1.47-2.15-2.95-4.67-2.95-4.03,0-5.46,3.74-5.46,6.69,0,3.15,1.43,6.68,5.46,6.68Z"/>
  <path class="cls-1" d="M91.36,32.88l-5,12.99h2.69l1.01-2.69h5l1.05,2.69h2.69l-4.96-12.99h-2.48ZM90.85,40.9l1.31-3.4c.13-.34.3-.84.43-1.18.08.34.29.84.42,1.18l1.26,3.4h-3.4Z"/>
  <path class="cls-1" d="M114.72,37.88c-1.31-.43-2.35-.8-2.35-1.6s.63-1.22,1.72-1.22c1.22,0,1.85.58,2.23,1.35l2.27-.71c-.47-1.72-1.98-3.03-4.33-3.03-2.81,0-4.41,1.64-4.41,3.57,0,2.56,2.19,3.31,4.08,3.95,1.43.46,2.61.88,2.61,1.98s-.84,1.55-2.11,1.55-2.27-.84-2.81-2.06l-2.28.88c.76,2.23,2.61,3.57,5.04,3.57,2.6,0,4.71-1.42,4.71-3.95,0-2.82-2.44-3.61-4.37-4.28Z"/>
  <polygon class="cls-1" points="108.55 43.46 102.29 43.46 102.29 32.88 99.77 32.88 99.77 45.86 108.55 45.86 108.55 43.46"/>
  <path class="cls-1" d="M42.88,43.72c-1.26,0-2.27-.84-2.82-2.06l-2.27.88c.75,2.23,2.6,3.57,5.04,3.57,2.6,0,4.7-1.42,4.7-3.95,0-2.82-2.43-3.61-4.36-4.28-1.31-.43-2.35-.8-2.35-1.6s.63-1.22,1.72-1.22c1.22,0,1.85.58,2.23,1.35l2.27-.71c-.45-1.72-1.97-3.03-4.32-3.03-2.82,0-4.41,1.64-4.41,3.57,0,2.56,2.19,3.31,4.08,3.95,1.42.46,2.6.88,2.6,1.98s-.84,1.55-2.1,1.55Z"/>
  <rect class="cls-1" x="83" y="32.88" width="2.48" height="12.99"/>
  <polygon class="cls-1" points="83.47 27.25 76.71 27.25 76.71 24.14 80.45 24.14 80.45 21.79 76.71 21.79 76.71 19.06 83.06 19.06 83.06 16.7 74.19 16.7 74.19 29.6 83.47 29.6 83.47 27.25"/>
  <polygon class="cls-1" points="57.87 35.27 57.87 32.91 49.01 32.91 49.01 45.86 58.3 45.86 58.3 43.51 51.53 43.51 51.53 40.35 55.27 40.35 55.27 38 51.53 38 51.53 35.27 57.87 35.27"/>
  <polygon class="cls-1" points="77.75 45.9 77.8 35.31 81.49 35.31 81.49 32.91 71.57 32.91 71.57 35.31 75.27 35.31 75.27 45.9 77.75 45.9"/>
  <path class="cls-1" d="M110.04,63.33s-5.94-8.64-12.92-10.38c-5.01-1.25-9.79-.79-15.3,2.04-.05.03-.09.05-.13.08-.67.35-1.35.73-2.04,1.15-5.86,3.52-12.64,9.18-19.31,18.17-.21.27-.41.51-.6.79-.95,1.32-1.82,2.59-2.65,3.86-.07.09-.13.19-.19.29-14.27,21.93-11.39,37.09-11.17,38.15,0-.02.02-.04.02-.06,3.54-9.71,10.17-20.26,19.39-29.86,14.67-15.3,31.98-24.15,44.92-24.21,0,0-.02-.02-.02-.02Z"/>
  <path class="cls-2" d="M69.66,20.27c0-.63-.3-1.35-1.64-1.35h-3.23v2.77h2.9c1.35,0,1.98-.54,1.98-1.42Z"/>
  <path class="cls-2" d="M70.11,25.73c0-.8-.42-1.68-2.26-1.68h-3.07v3.2h3.57c1.35,0,1.76-.8,1.76-1.51Z"/>
  <path class="cls-2" d="M92.59,36.32c-.13.34-.3.84-.43,1.18l-1.31,3.4h3.4l-1.26-3.4c-.13-.34-.34-.84-.42-1.18Z"/>
  <path class="cls-2" d="M107.91,126.05c-.89-.08-1.79-.02-2.72-.02v8.16c.73,0,1.44.01,2.15,0,1.31-.03,2.29-.63,2.83-1.81.72-1.59.7-3.2-.09-4.77-.44-.88-1.17-1.47-2.16-1.56Z"/>
  <path class="cls-2" d="M51.16,126.01c-1.03-.01-2.05,0-3.08,0-.12,0-.25.02-.38.04v3.27c1.33,0,2.62.03,3.9-.01.6-.02,1.01-.39,1.2-.97.43-1.31-.27-2.31-1.64-2.32Z"/>
  <path class="cls-2" d="M132.98,74.43c0-3,0-6,0-9-.02-7.78-1.45-15.4-4.35-22.59-4.14-10.3-10.47-19.18-18.96-26.46-5.66-4.85-11.98-8.65-18.86-11.32-7.96-3.1-16.31-4.26-24.93-4.19-9.97.09-19.35,2.34-28.13,6.79-10.58,5.35-19.4,12.95-25.59,23.17-2.83,4.68-5.44,9.58-7.37,14.68-2.05,5.41-3.52,11.18-3.71,17.04-.02.89-.03,1.73-.03,2.67v9.09c-.07.38-.1.77-.1,1.17v76.12c0,1.9.73,3.65,1.91,4.96.47.51,1.02.97,1.61,1.34,1.35.82,2.88,1.24,4.45,1.23,4.51-.02,9.03,0,13.55,0h92.15c3.31,0,6.62.07,9.92.03,2.13-.03,4.41-.45,6.11-1.81,1.43-1.14,1.97-2.68,2.29-4.41.08-.43.12-.87.12-1.32v-76.12c0-.35-.03-.7-.08-1.04ZM99.77,32.88h2.52v10.58h6.26v2.4h-8.78v-12.99ZM65.14,87.56c-9.22,9.61-15.85,20.15-19.39,29.86,0,.02-.01.04-.02.06-.23-1.06-3.11-16.22,11.17-38.15.06-.1.12-.2.19-.29.83-1.27,1.7-2.54,2.65-3.86.2-.28.4-.52.6-.79,6.67-8.99,13.45-14.65,19.31-18.17.69-.42,1.37-.8,2.04-1.15.04-.03.08-.05.13-.08,5.51-2.83,10.3-3.28,15.3-2.04,6.98,1.74,12.92,10.38,12.92,10.38,0,0,.01,0,.02.02-12.94.06-30.25,8.9-44.92,24.21ZM87.99,123.59v13.01h-2.47v-13.01h2.47ZM81.15,128.68v2.39h-3.89v5.53h-2.51v-12.99h8.72c0,.73,0,1.44,0,2.14,0,.3-.22.25-.4.25-1.38,0-2.75,0-4.13,0-.55,0-1.09,0-1.67,0v2.68h3.88ZM71.68,123.6v12.99h-2.49v-12.99h2.49ZM55.27,38v2.35h-3.74v3.16h6.77v2.35h-9.29v-12.95h8.86v2.35h-6.34v2.73h3.74ZM71.57,35.31v-2.39h9.91v2.39h-3.69l-.05,10.59h-2.47v-10.59h-3.7ZM83,45.86v-12.99h2.48v12.99h-2.48ZM96.11,45.86l-1.05-2.69h-5l-1.01,2.69h-2.69l5-12.99h2.48l4.96,12.99h-2.69ZM84.99,16.61h6.05c3.23,0,4.32,1.94,4.32,4.08,0,1.47-.84,3.16-2.52,3.74l2.52,5.17h-2.81l-2.44-4.84h-2.6v4.84h-2.52v-12.99ZM74.19,16.7h8.87v2.35h-6.35v2.73h3.74v2.35h-3.74v3.11h6.77v2.35h-9.29v-12.9ZM62.3,16.61h5.72c3.16,0,4.2,1.73,4.2,3.49,0,1.09-.43,2.15-1.55,2.65,1.46.54,2.02,1.84,2.02,2.98,0,1.85-1.18,3.87-4.41,3.87h-5.97v-12.99ZM67.24,40.35c.17.26.39.67.55.97,0-.3-.05-.71-.05-.97v-7.48h2.48v12.99h-2.23l-5.17-7.57c-.17-.21-.38-.67-.54-.97,0,.3.04.67.04.97v7.57h-2.47v-12.99h2.35l5.03,7.48ZM52.18,16.57l3.2,5.29,3.19-5.29h2.82l-4.79,7.94v5.08h-2.48l.04-5.08-4.79-7.94h2.82ZM44.44,16.44c2.52,0,4.08,1.47,4.67,2.95l-2.27,1.01c-.67-1.01-1.26-1.55-2.39-1.55-2.19,0-2.86,2.34-2.86,4.28s.89,4.28,2.86,4.28c1.05,0,1.77-.71,2.35-1.68l2.31.88c-.84,1.89-2.31,3.2-4.67,3.2-4.03,0-5.46-3.53-5.46-6.68,0-2.95,1.43-6.69,5.46-6.69ZM42.37,40.19c-1.89-.63-4.08-1.38-4.08-3.95,0-1.93,1.59-3.57,4.41-3.57,2.35,0,3.87,1.31,4.32,3.03l-2.27.71c-.38-.76-1.01-1.35-2.23-1.35-1.09,0-1.72.42-1.72,1.22s1.05,1.18,2.35,1.6c1.93.67,4.36,1.46,4.36,4.28,0,2.52-2.1,3.95-4.7,3.95-2.44,0-4.29-1.35-5.04-3.57l2.27-.88c.55,1.22,1.56,2.06,2.82,2.06s2.1-.5,2.1-1.55-1.18-1.51-2.6-1.98ZM31.32,40.19c-1.89-.63-4.08-1.38-4.08-3.95,0-1.93,1.59-3.57,4.41-3.57,2.35,0,3.87,1.31,4.32,3.03l-2.27.71c-.38-.76-1.01-1.35-2.23-1.35-1.1,0-1.72.42-1.72,1.22s1.05,1.18,2.35,1.6c1.93.67,4.36,1.46,4.36,4.28,0,2.52-2.1,3.95-4.7,3.95-2.44,0-4.29-1.35-5.05-3.57l2.27-.88c.55,1.22,1.55,2.06,2.82,2.06s2.1-.5,2.1-1.55-1.18-1.51-2.6-1.98ZM16.5,32.91h8.86v2.35h-6.35v2.73h3.74v2.35h-3.74v3.16h6.77v2.35h-9.28v-12.95ZM27.75,136.72c-2.88.53-5.2-.84-6.08-3.63-.75-2.37-.68-4.72.46-6.96.92-1.81,2.44-2.74,4.48-2.75,1.96-.01,3.51.75,4.52,2.47.09.14.15.3.23.49-.74.34-1.43.66-2.13.96-.08.03-.27-.09-.35-.19-.38-.5-.8-.96-1.42-1.16-1.17-.36-2.35.09-2.91,1.2-.95,1.89-.97,3.84-.05,5.73.91,1.85,2.92,1.98,4.17.33q.4-.52,1.02-.29c.55.21,1.1.42,1.7.65-.75,1.64-1.84,2.82-3.64,3.15ZM42.8,136.59h-9.25v-13h8.9c0,.75.01,1.49-.02,2.24,0,.06-.27.16-.41.16-1.78.01-3.56,0-5.34,0-.17,0-.34,0-.55,0v2.67h3.69v2.42h-3.7v3.09h6.68v2.41ZM44.92,117.52c-.38-.4-.74-.77-1.12-1.16-.2-.2-.4-.4-.59-.6-10.17-10.56-16.57-21.11-18.63-36.81.3.44.61.84.94,1.25,3.45,4.19,8.85,6.9,14.95,6.9,4.53,0,8.68-1.5,11.94-4,1.42-1.09,2.66-2.35,3.7-3.78-14.27,21.93-11.4,37.09-11.18,38.15,0,0,0,.02,0,.04ZM51.22,147.76c-.97.04-1.94,0-2.91,0-.14,0-.28,0-.47,0v4.75h-2.55c0-.14-.02-.3-.02-.45,0-4.01,0-8.03,0-12.04,0-.38.08-.53.5-.52,1.77.02,3.54-.01,5.3.02,1.54.03,2.9.47,3.72,1.9,1.33,2.33.41,6.17-3.55,6.34ZM55.55,136.58c-.15.02-.26.05-.36.05-.71,0-1.42,0-2.13,0-.27,0-.42-.08-.54-.32-.7-1.41-1.42-2.81-2.12-4.23-.12-.24-.26-.33-.53-.32-.71.02-1.42,0-2.18,0v4.82h-2.54v-13.02h.45c1.85,0,3.71-.02,5.56,0,.56,0,1.13.06,1.67.2,1.45.38,2.34,1.34,2.61,2.82.32,1.73-.09,3.22-1.51,4.34-.26.2-.57.34-.88.53.82,1.68,1.64,3.37,2.48,5.1ZM65.91,152.53h-8.75v-13.01h2.51v10.55h6.24v2.45ZM66.96,126.03h-3.69v10.57h-2.54v-10.56h-3.7v-2.44h9.93v2.43ZM78.08,147.65c-.01,1.47-.36,2.84-1.51,3.89-.96.87-2.14,1.19-3.39,1.24-1.39.06-2.72-.17-3.86-1.04-1.17-.89-1.69-2.15-1.72-3.56-.06-2.84-.02-5.68-.03-8.52,0-.04.02-.08.04-.14h2.5v.53c0,2.45,0,4.9,0,7.34,0,.33.03.67.08.99.17,1.14.85,1.79,1.99,1.88.39.03.78.03,1.17,0,1.26-.08,2.03-.83,2.12-2.09.05-.71.03-1.42.03-2.13,0-2.04,0-4.08,0-6.13,0-.33.08-.46.44-.45.69.03,1.38,0,2.11,0,.01.2.03.35.03.51,0,2.55.02,5.1,0,7.65ZM89.92,149.33c-.19,1.59-1.14,2.59-2.61,3.12-2.34.84-4.93.18-6.29-1.63-.36-.48-.61-1.03-.94-1.61.85-.32,1.6-.6,2.37-.89.16.26.3.49.46.71.79,1.1,1.97,1.55,3.23,1.23.65-.17,1.12-.53,1.23-1.24.09-.58-.16-1.11-.84-1.43-.8-.37-1.65-.63-2.46-.96-.64-.27-1.3-.51-1.88-.88-2.09-1.36-2.05-4.32.03-5.69,1.87-1.22,4.82-.97,6.26.6.42.45.69,1.04,1.08,1.65-.87.29-1.61.54-2.36.79-.06-.08-.14-.15-.18-.23-.68-1.24-2.16-1.28-3.04-.97-.43.15-.69.47-.74.93-.04.45.19.77.56.95.6.28,1.23.51,1.84.76.79.33,1.61.59,2.35,1,1.5.81,2.13,2.13,1.93,3.81ZM100.3,136.6h-9.25v-13.01h8.87v2.41h-6.31v2.67h3.67v2.41h-3.68v3.08h6.69v2.43ZM112.9,132.64c-.78,2.26-2.38,3.61-4.72,3.87-1.82.2-3.67.12-5.56.17v-13.03s.06-.05.08-.05c1.79.02,3.6-.08,5.38.09,2.64.24,4.37,1.88,5,4.47.37,1.51.32,3.02-.18,4.49ZM114.39,46.11c-2.43,0-4.28-1.35-5.04-3.57l2.28-.88c.54,1.22,1.55,2.06,2.81,2.06s2.11-.5,2.11-1.55-1.18-1.51-2.61-1.98c-1.89-.63-4.08-1.38-4.08-3.95,0-1.93,1.6-3.57,4.41-3.57,2.35,0,3.87,1.31,4.33,3.03l-2.27.71c-.38-.76-1.01-1.35-2.23-1.35-1.09,0-1.72.42-1.72,1.22s1.05,1.18,2.35,1.6c1.93.67,4.37,1.46,4.37,4.28,0,2.52-2.11,3.95-4.71,3.95Z"/>
  <path class="cls-2" d="M51.34,141.98c-1.15-.08-2.3-.02-3.48-.02v3.38c1.11,0,2.18.01,3.24,0,.92-.01,1.52-.65,1.58-1.61.05-.88-.49-1.68-1.34-1.74Z"/>
  <path class="cls-2" d="M92.8,20.65c0-.8-.38-1.68-1.72-1.68h-3.57v3.4h3.57c1.31,0,1.72-.84,1.72-1.72Z"/>
</svg>