<?xml version="1.0" encoding="UTF-8"?>
<svg id="Layer_1" data-name="Layer 1" xmlns="http://www.w3.org/2000/svg" viewBox="0 0 192 160">
  <defs>
    <style>
      .cls-1 {
        fill: #fff;
      }
    </style>
  </defs>
  <path class="cls-1" d="m183.29,52.93h-9.36c.96.71,1.48,1.87,1.36,3.06v10.21q0,.34-.51.51c-4.25.29-8.51.29-12.76,0-.34,0-.51,0-.51-.68v-9.7c-.14-1.29.37-2.56,1.36-3.4h-9.36c1.02.82,1.53,2.11,1.36,3.4v25.35c.17,1.29-.35,2.58-1.36,3.4h9.53c-1.02-.74-1.54-1.99-1.36-3.23v-11.06q0-.51.51-.68c4.19-.27,8.4-.27,12.59,0,.34,0,.51.17.51.68v10.89c.18,1.26-.26,2.53-1.19,3.4h9.19c-.93-.73-1.44-1.88-1.36-3.06v-26.2c-.06-1.13.45-2.21,1.36-2.89ZM39.17,11.24c10.66,2.13,21.47,3.44,32.33,3.91l22.12.68h38.79c7.83,0,15.65,0,23.48-.34l13.95.17c1.37.07,2.74.24,4.08.51-1.59,1.47-3.36,2.72-5.27,3.74-4.3,2.47-8.79,4.58-13.44,6.3-8.17,3.06-16.5,5.9-25.01,8.51l-4.25,1.36c.56.2,1.12.37,1.7.51,9.32,2.76,18.82,4.92,28.42,6.47.98.15,1.98.03,2.89-.34,4.55-1.68,8.99-3.67,13.27-5.96,3.93-1.76,7.59-4.05,10.89-6.81,2.21-1.73,3.21-4.59,2.55-7.32-.84-1.48-2.01-2.76-3.4-3.74-2.51-1.45-5.29-2.38-8.17-2.72,2.85.36,5.62,1.22,8.17,2.55,1.4.98,2.56,2.26,3.4,3.74-.11-.82-.34-1.62-.68-2.38l-1.7-3.4c-1.12-2.12-2.37-4.16-3.74-6.13-.85-1.23-1.82-2.37-2.89-3.4-1.42-1.39-3.09-2.49-4.93-3.23-4.58-1.82-9.39-2.96-14.29-3.4-4.18-.41-8.39-.58-12.59-.51h-7.32l-34.88,1.36-20.93.85-23.14,1.02-22.63.85-19.23,1.02h-2.72c.55.27,1.12.5,1.7.68,7.73,2.26,15.57,4.14,23.48,5.61v-.17Zm141.22,115.7c2.06-.05,4.08-.51,5.96-1.36.68-.37,1.31-.83,1.87-1.36,3.57-3.2,3.87-8.68.68-12.25h-.17.17c-1.28-1.3-2.71-2.44-4.25-3.4-1.87-1.04-3.69-2.18-5.44-3.4-1.07-.84-1.9-1.96-2.38-3.23-.85-1.78-.09-3.91,1.69-4.76h0c1.29-.57,2.72-.69,4.08-.34,2.5.51,4.66,2.06,5.96,4.25-.15-1.81-.21-3.63-.17-5.44.01-.32-.2-.6-.51-.68-3.97-1.27-8.22-1.38-12.25-.34-4.03.92-6.55,4.94-5.63,8.97,0,.02,0,.03.01.05l.17.51c.64,2.16,1.95,4.07,3.74,5.44,1.9,1.48,3.89,2.85,5.96,4.08,1.39.91,2.6,2.06,3.57,3.4.27.31.5.65.68,1.02.77,2.32-.49,4.82-2.81,5.59-.03,0-.05.02-.08.03-3.67.93-7.55-.41-9.87-3.4-.82-.86-1.51-1.83-2.04-2.89-.27,1.8-.33,3.63-.17,5.44.17,2.21-.17,1.7,1.87,2.72,2.97,1.18,6.18,1.65,9.36,1.36Zm-17.36-32.5c.51.68.68.85.34,1.7l-.51.68-5.44,9.7-.17.34-1.7-2.72-4.93-7.66c-.88-1.53-2.49-2.49-4.25-2.55-1.71-.11-3.42,0-5.1.34-.75.1-1.49.27-2.21.51,1.26.05,2.46.53,3.4,1.36,1.15,1.09,2.13,2.35,2.89,3.74l6.81,10.72c.07.28.07.57,0,.85v11.91c.1,1.15-.34,2.28-1.19,3.06h9.36c-.96-.63-1.49-1.75-1.36-2.89v-11.91c-.02-.29.04-.59.17-.85l7.49-13.1c.56-1.04,1.31-1.96,2.21-2.72.26-.21.55-.38.85-.51h-6.64Zm-119.28,3.4c-.21-1.34.39-2.67,1.53-3.4h-9.7c1.17.87,1.76,2.31,1.53,3.74v24.84c.13,1.37-.53,2.69-1.7,3.4h9.87c-1.09-.63-1.74-1.81-1.7-3.06h.17v-25.52Zm102.94,28.59c-1.02-.64-1.8-1.6-2.21-2.72l-10.55-28.76c-.08-.4-.44-.69-.85-.68h-7.66l.51.34c.65.55.8,1.49.34,2.21l-10.21,26.88c-.38,1.05-1.1,1.95-2.04,2.55h5.96c-.68-.34-.68-.51-.34-1.36l3.23-8.34s.17-.34.51-.34h11.06c.21.03.4.15.51.34l2.89,7.83c.17.85.34,1.7-.34,2.04h9.19Zm-13.61-13.44c-2.78.19-5.56.19-8.34,0-.34,0-.51,0-.34-.51l4.76-11.91,1.7,5.1,2.55,6.81q.17.51-.34.51ZM10.08,81.69c.17,1.33-.42,2.65-1.53,3.4h13.1c1.25.03,2.5-.03,3.74-.17,2.25-.32,4.4-1.14,6.3-2.38,3.55-2.47,4.42-7.35,1.95-10.9-.68-.98-1.59-1.8-2.63-2.38-1.44-.67-3.01-1.01-4.59-1.02.66-.21,1.28-.49,1.87-.85,2.17-1,3.66-3.07,3.91-5.44.35-3.53-1.76-6.83-5.1-8-1.78-.72-3.69-1.07-5.61-1.02h-12.76c1.07.85,1.6,2.22,1.36,3.57v25.18Zm6.64-20.25v-5.1c0-.17,0-.34.34-.51,2.03-.26,4.08.03,5.96.85,1.47.68,2.45,2.12,2.55,3.74.37,1.88-.27,3.82-1.7,5.1-1,.74-2.17,1.2-3.4,1.36-1.13.17-2.27.22-3.4.17-.17,0-.34,0-.34-.51v-5.1Zm0,9.19c0-.34,0-.51.34-.51,2.05-.19,4.11-.07,6.13.34,2.89.6,4.78,3.39,4.25,6.3,0,2.28-1.43,4.32-3.57,5.1-.87.31-1.79.49-2.72.51-1.31-.03-2.62-.14-3.91-.34-.34,0-.51,0-.51-.51v-10.89Zm124.21,11.06c-.27.14-.56.25-.85.34v.17c-1.42.49-2.94.61-4.42.34-3.2-.72-5.86-2.94-7.15-5.96l-.34-.68c-.34,1.85-.46,3.74-.34,5.61q.17,1.7,1.87,2.55c1.96.77,4.03,1.23,6.13,1.36,2.82.35,5.69,0,8.34-1.02,3.92-1.42,6.27-5.42,5.61-9.53-.37-2.15-1.52-4.09-3.23-5.44-1.79-1.54-3.73-2.91-5.79-4.08-1.48-.85-2.86-1.87-4.08-3.06-1.13-1.03-1.64-2.58-1.36-4.08.42-1.58,1.78-2.73,3.4-2.89,2.46-.39,4.97.36,6.81,2.04.65.61,1.22,1.29,1.7,2.04l-.34-5.1q0-.85-.85-1.19c-3.09-.9-6.36-1.08-9.53-.51-1.92.25-3.74,1.02-5.27,2.21-2.24,2-3.11,5.13-2.21,8,.66,2.15,1.97,4.05,3.74,5.44l6.3,4.25c1.23.72,2.32,1.64,3.23,2.72,1.34,2.12.73,4.92-1.36,6.3v.17ZM21.99,116.74l2.72,7.66c.48.58.41,1.43-.17,1.92-.05.05-.11.09-.17.12h9.19c-1.06-.74-1.84-1.82-2.21-3.06h.17l-3.06-8.17-7.32-20.42c-.14-.34-.49-.54-.85-.51h-7.49v.17c.83.39,1.21,1.37.85,2.21-.08.19-.2.36-.34.51l-10.04,26.03c-.37,1.38-1.22,2.58-2.38,3.4h6.3c-.68-.68-.68-.85-.51-1.7l3.4-8.34c0-.34.17-.34.51-.34h10.72c.3.04.56.23.68.51Zm-1.7-3.91l.17.34c-2.83.22-5.68.22-8.51,0-.34,0-.51,0-.34-.68l4.59-11.57v-.51l1.7,3.91,2.72,8c0,.34,0,.51-.34.51Zm26.03-42.88c1.06.11,2.07.52,2.89,1.19,1.2,1.05,2.18,2.32,2.89,3.74.77,1.52,1.63,2.99,2.55,4.42,1,1.58,2.13,3.06,3.4,4.42.87.85,2.02,1.34,3.23,1.36,2.85.21,5.72-.02,8.51-.68-1.98-.24-3.8-1.21-5.1-2.72l-2.21-2.55c-1.7-2.21-3.06-4.59-4.93-6.81-1.19-1.75-2.92-3.07-4.93-3.74.98-.08,1.95-.26,2.89-.51,2.92-.92,4.96-3.57,5.1-6.64.18-2.99-1.52-5.77-4.25-6.98-2.07-1-4.34-1.53-6.64-1.53h-11.91c.99.77,1.5,1.99,1.36,3.23v25.86c.12,1.19-.4,2.35-1.36,3.06h9.53c-1-.62-1.58-1.72-1.53-2.89v-11.91c0-.34.17-.34.51-.34Zm-.34-13.61c0-.34,0-.51.34-.51,1.25-.19,2.52-.13,3.74.17,1.81.41,3.16,1.91,3.4,3.74.33,1.56.09,3.19-.68,4.59-.92,1.6-2.58,2.62-4.42,2.72-.68.07-1.36.07-2.04,0q-.34,0-.34-.51v-10.21Zm58.19.34c1.19.12,2.39.12,3.57,0,2.15-.41,3.94-1.89,4.76-3.91.34-.51,0-.34-.34-.34-1.75.27-3.51.38-5.27.34h-22.8c-.34,0-.68,0-.85.34l-1.87,4.25c1.62-.64,3.36-.93,5.1-.85h6.3c.51,0,.51.17.51.68v24.33c.2,1.38-.39,2.76-1.53,3.57h9.7c-1.02-.67-1.61-1.84-1.53-3.06v-24.84c0-.51.17-.68.68-.68v.17h3.57Zm9.87,28.42h9.7c-1.15-.66-1.81-1.92-1.7-3.23v-25.69c-.09-1.14.43-2.24,1.36-2.89h-9.53c1.17.8,1.82,2.16,1.7,3.57v24.84c.13,1.33-.45,2.62-1.53,3.4Zm-.17.17c.06,0,.11,0,.17,0h-.17Zm5.79,9.02h-6.13c.45.44.59,1.12.34,1.7l-6.3,18.72.17.17c0,.09-.08.17-.17.17l-8.51-20.76-7.49,21.61v-.17l-7.32-19.06c-.42-.78-.28-1.75.34-2.38h-9.36c1.2.82,2.1,2.02,2.55,3.4l3.4,9.02,7.49,19.23c.08.31.36.52.68.51h2.04c.34,0,.51,0,.68-.51l4.59-13.1,1.53-4.25c.09,0,.17.08.17.17,0,.09-.08.17-.17.17l3.57,9.02c.89,2.33,1.91,4.6,3.06,6.81.4.91,1.23,1.55,2.21,1.7.34,0,.51,0,.68-.51l9.19-27.22c.36-1.75,1.33-3.31,2.72-4.42Zm-47.81-11.23c-.24.85-.79,1.57-1.53,2.04h9.87c-1.04-.6-1.68-1.7-1.7-2.89v-26.37c-.06-1.08.46-2.12,1.36-2.72h-9.53c1.17.8,1.82,2.16,1.7,3.57v25.18c-.02.4-.07.8-.17,1.19Zm8,43.56c1.21-.12,2.41-.34,3.57-.68-1.46-.12-2.83-.72-3.91-1.7-.93-.89-1.79-1.85-2.55-2.89l-5.1-6.81c-1.38-2.08-3.42-3.63-5.79-4.42.75-.12,1.49-.29,2.21-.51,3.06-.91,5.22-3.62,5.44-6.81.16-3.22-1.86-6.15-4.93-7.15-1.93-.83-4.02-1.24-6.13-1.19h-11.91c1.02.82,1.53,2.11,1.36,3.4v25.52c.12,1.19-.4,2.35-1.36,3.06h9.53c-.97-.64-1.55-1.73-1.53-2.89v-11.57q0-.68.68-.68c1.6.28,3.05,1.13,4.08,2.38,1.39,1.56,2.59,3.27,3.57,5.1,1.21,2.03,2.57,3.97,4.08,5.79,1.05,1.27,2.6,2.02,4.25,2.04,1.47.08,2.95.08,4.42,0Zm-15.99-18.72c-1.5.65-3.16.83-4.76.51-.51,0-.34-.34-.34-.51v-10.04c0-.51.17-.51.51-.68,1.31-.17,2.65-.05,3.91.34,2.04.48,3.46,2.33,3.4,4.42.39,2.31-.7,4.61-2.72,5.79v.17ZM7.35,141.24c-1.49.05-2.97.22-4.42.51v17.87h2.38v-7.32c.56.12,1.13.18,1.7.17,2.13.18,4.24-.57,5.79-2.04.93-1.02,1.41-2.37,1.36-3.74.1-1.47-.46-2.9-1.53-3.91-1.47-1.07-3.29-1.56-5.1-1.36l-.17-.17Zm-.17,9.36c-.63.02-1.26-.04-1.87-.17v-7.15c.74-.08,1.48-.08,2.21,0,2.55,0,4.25,1.02,4.25,3.4s-1.7,3.91-4.59,3.91Zm11.74-1.53h-.17v-2.55h-2.21v13.1h2.55v-6.98c-.04-.4-.04-.79,0-1.19.24-1.62,1.6-2.83,3.23-2.89.28-.03.57-.03.85,0v-2.21c-.23-.03-.45-.03-.68,0-1.65.07-3.07,1.15-3.57,2.72Zm11.4-2.72c-3.74,0-6.13,3.06-6.13,6.98-.39,3.27,1.94,6.23,5.21,6.62.42.05.84.06,1.26.02,1.47-.04,2.92-.39,4.25-1.02l-.34-1.7c-1.13.48-2.35.71-3.57.68-2.34.19-4.39-1.55-4.58-3.9-.01-.18-.02-.35,0-.53h9.19c.03-.4.03-.79,0-1.19,0-2.21-1.02-5.96-5.1-5.96h-.17Zm-3.74,5.44c.08-1.97,1.61-3.57,3.57-3.74,1.88-.02,3.42,1.48,3.44,3.36,0,.18-.01.37-.04.55l-6.98-.17Zm14.63-5.96c0-2.04.51-3.74,2.55-3.74.53,0,1.05.11,1.53.34l.34-1.7c-.64-.3-1.34-.47-2.04-.51-1.19-.04-2.35.39-3.23,1.19-1.12,1.26-1.67,2.92-1.53,4.59v.51h-1.7v1.7h1.7v11.4h2.38v-11.23h3.06v-1.7h-3.06v-.85Zm10.04.51c-3.74,0-6.13,3.06-6.13,6.81-.49,3.25,1.76,6.28,5.01,6.77.48.07.97.08,1.45.04,1.47-.04,2.92-.39,4.25-1.02l-.34-1.7c-1.18.51-2.46.74-3.74.68-2.25.2-4.23-1.47-4.42-3.71-.02-.24-.02-.47,0-.71h9.19c.03-.4.03-.79,0-1.19,0-2.21-1.02-5.96-5.27-5.96Zm-3.74,5.44c.07-1.91,1.51-3.49,3.4-3.74,1.88-.02,3.42,1.48,3.44,3.36,0,.18-.01.37-.04.55l-6.81-.17Zm14.12-2.72v-2.55h-2.21v13.1h2.38v-6.98c.02-.4.08-.8.17-1.19.24-1.62,1.6-2.83,3.23-2.89.23-.02.45-.02.68,0v-2.21c-.23-.03-.45-.03-.68,0-1.58.13-2.93,1.21-3.4,2.72h-.17Zm9.02,0v-2.55h-2.38v13.1h2.55v-6.98c-.04-.4-.04-.79,0-1.19.24-1.62,1.6-2.83,3.23-2.89.28-.03.57-.03.85,0v-2.21c-.23-.03-.45-.03-.68,0-1.65.07-3.07,1.15-3.57,2.72Zm11.4-2.72c-3.74,0-6.13,3.06-6.13,6.98-.4,3.26,1.92,6.24,5.19,6.64.48.06.97.06,1.45,0,1.46.01,2.91-.28,4.25-.85l-.34-1.7c-1.13.48-2.35.71-3.57.68-2.25.21-4.23-1.45-4.44-3.69-.03-.3-.02-.6.02-.9h9.02c.02-.34.02-.68,0-1.02,0-2.38-1.02-6.13-5.1-6.13h-.34Zm-3.74,5.44c.08-1.97,1.61-3.57,3.57-3.74,1.88-.02,3.42,1.48,3.44,3.36,0,.18-.01.37-.04.55l-6.98-.17Zm23.31-11.23h-2.38v7.49c-.89-1.26-2.37-1.97-3.91-1.87-3.23,0-5.96,2.55-5.96,6.81s2.38,6.81,5.61,6.81c1.88.05,3.62-1.02,4.42-2.72l.17,2.38h2.21l-.17-3.4v-15.48Zm-2.38,13.61c.04.34.04.68,0,1.02-.33,1.61-1.76,2.76-3.4,2.72-2.72,0-3.91-2.21-3.91-4.76s1.36-5.1,3.74-5.1c1.64-.03,3.07,1.11,3.4,2.72.04.34.04.68,0,1.02l.17,2.38Zm16.5-12.93c-1.49.05-2.97.22-4.42.51v17.87h2.21v-7.32c.61.13,1.24.19,1.87.17,2.07.13,4.11-.61,5.61-2.04.93-1.02,1.41-2.37,1.36-3.74.06-1.49-.57-2.93-1.7-3.91-1.43-1.02-3.18-1.5-4.93-1.36v-.17Zm-.17,9.36c-.69.04-1.37-.02-2.04-.17v-7.15c.74-.08,1.48-.08,2.21,0,2.55,0,4.25,1.02,4.25,3.4s-1.7,3.91-4.42,3.91Zm18.38.85c0-2.55-1.02-5.1-5.1-5.1-1.49-.06-2.96.29-4.25,1.02l.68,1.7c1.01-.66,2.19-1.01,3.4-1.02,1.5-.11,2.8,1.02,2.91,2.52.01.18,0,.36-.02.54v.17c-5.1,0-7.83,1.7-7.83,4.76,0,2.07,1.67,3.75,3.74,3.75.06,0,.12,0,.17,0,1.59.1,3.12-.6,4.08-1.87v1.7h2.21c-.08-1.02-.08-2.04,0-3.06v-5.1Zm-2.38,3.74c.03.23.03.45,0,.68-.47,1.45-1.89,2.37-3.4,2.21-1.13,0-2.04-.91-2.05-2.03,0-.06,0-.12,0-.18,0-2.55,2.89-3.06,5.44-2.89v2.21Zm8.34-6.13h-.17v-2.55h-2.21v13.1h2.55v-6.98c-.04-.4-.04-.79,0-1.19.24-1.62,1.6-2.83,3.23-2.89.28-.03.57-.03.85,0v-2.21c-.23-.03-.45-.03-.68,0-1.65.07-3.07,1.15-3.57,2.72Zm10.04-6.13l-2.38.51v3.06h-1.87v1.7h1.87v7.32c-.11,1.22.25,2.44,1.02,3.4.7.62,1.62.93,2.55.85.7.01,1.39-.1,2.04-.34v-1.7c-.5.12-1.02.18-1.53.17-1.19,0-1.7-.85-1.7-2.38v-7.15h3.4v-1.7h-3.4v-3.74Zm12.59,3.4c-1.81-.11-3.52.81-4.42,2.38v-2.04h-2.38v12.93h2.38v-7.83c-.02-.4.04-.81.17-1.19.44-1.41,1.75-2.38,3.23-2.38,2.21,0,2.89,1.7,2.89,3.91v7.49h2.38v-7.83c0-4.42-2.72-5.44-4.59-5.44h.34Zm13.61,0c-3.91,0-6.3,3.06-6.3,6.98-.39,3.27,1.94,6.23,5.21,6.62.42.05.84.06,1.26.02,1.46.01,2.91-.28,4.25-.85l-.34-1.7c-1.13.48-2.35.71-3.57.68-2.25.21-4.23-1.45-4.44-3.69-.03-.3-.02-.6.02-.9h9.02v-1.02c0-2.38-1.02-6.13-5.1-6.13h0Zm-3.91,5.44c.08-1.97,1.61-3.57,3.57-3.74,1.88-.02,3.42,1.48,3.44,3.36,0,.18-.01.37-.04.55l-6.98-.17Zm14.12-2.72v-2.55h-2.04v13.1h2.38v-6.98c-.05-.4-.05-.8,0-1.19.25-1.68,1.71-2.91,3.4-2.89.23-.02.45-.02.68,0v-2.21c-.23-.03-.45-.03-.68,0-1.71,0-3.22,1.1-3.74,2.72Z"/>
</svg>