<?xml version="1.0" encoding="UTF-8"?>
<svg id="Layer_1" data-name="Layer 1" xmlns="http://www.w3.org/2000/svg" viewBox="0 0 97 160">
  <defs>
    <style>
      .cls-1 {
        fill: #fff;
      }
    </style>
  </defs>
  <g>
    <path class="cls-1" d="m28.75,46.13h19.61c4.77,0,11.06,0,14.31,1.97,3.56,2.12,6.36,5.98,6.36,11.28,0,5.75-3.03,10.07-8.02,12.11v.15c6.67,1.36,10.3,6.36,10.3,13.02,0,7.95-5.68,15.52-16.43,15.52h-26.12v-54.06Zm7.19,23.25h14.39c8.17,0,11.51-2.95,11.51-8.63,0-7.5-5.3-8.55-11.51-8.55h-14.39v17.19Zm0,24.76h18.03c6.21,0,10.15-3.79,10.15-9.69,0-7.04-5.68-9.01-11.74-9.01h-16.43v18.7Z"/>
    <path class="cls-1" d="m89.7,73.19c0,22.71-18.41,41.12-41.13,41.12S7.45,95.9,7.45,73.19s18.41-41.12,41.12-41.12,41.13,18.41,41.13,41.12ZM48.57,25.8C22.42,25.8,1.21,47,1.21,73.16s21.21,47.37,47.36,47.37,47.37-21.21,47.37-47.37-21.21-47.37-47.37-47.37Z"/>
  </g>
  <g>
    <rect class="cls-1" x="1.31" y="130.52" width="94.54" height="6.21"/>
    <path class="cls-1" d="m92.89,123.68c.12,0,.23,0,.33-.01.1,0,.19-.03.27-.06.08-.04.15-.09.19-.16.05-.08.07-.17.07-.31,0-.11-.02-.2-.06-.26-.04-.07-.1-.12-.17-.15-.07-.04-.14-.06-.23-.08-.09,0-.17-.01-.26-.01h-.68v1.05h.54Zm.23-1.47c.39,0,.68.08.87.23.19.16.29.39.29.71,0,.3-.09.51-.25.66-.17.14-.38.22-.63.25l.95,1.45h-.55l-.9-1.42h-.54v1.42h-.52v-3.3h1.28Zm-2.32,2.6c.11.3.27.56.49.77.2.21.45.39.74.51.28.12.59.18.92.18s.64-.06.92-.18c.28-.12.53-.3.74-.51.2-.22.37-.47.48-.77.12-.29.18-.61.18-.95s-.06-.65-.18-.95c-.12-.3-.28-.55-.48-.76-.21-.21-.46-.38-.74-.5-.28-.12-.58-.18-.92-.18s-.64.07-.92.18c-.29.12-.54.29-.74.5-.21.22-.38.47-.49.76-.12.29-.18.6-.18.95s.06.66.18.95m-.47-2.07c.15-.34.36-.63.61-.89.26-.25.56-.44.91-.59.34-.15.71-.21,1.09-.21s.76.07,1.11.21c.34.15.63.34.89.59.26.26.47.55.61.89.16.34.23.72.23,1.12s-.07.78-.23,1.12c-.14.35-.36.64-.61.9-.25.26-.55.45-.89.6-.35.14-.71.21-1.11.21s-.75-.07-1.09-.21c-.35-.15-.65-.34-.91-.6-.26-.25-.46-.55-.61-.9-.16-.34-.22-.71-.22-1.12s.06-.78.22-1.12"/>
  </g>
  <g>
    <path class="cls-1" d="m12.76,4.97c-.22-.36-.5-.67-.84-.95-.34-.27-.71-.48-1.14-.64-.42-.15-.87-.23-1.33-.23-.85,0-1.56.16-2.16.49-.59.33-1.07.77-1.44,1.32-.37.55-.63,1.18-.8,1.88-.17.7-.25,1.43-.25,2.18s.08,1.42.25,2.09c.17.68.44,1.29.8,1.83.37.54.85.98,1.44,1.3.59.33,1.31.49,2.16.49,1.15,0,2.05-.35,2.69-1.05.65-.7,1.04-1.63,1.19-2.78h3.64c-.1,1.07-.34,2.03-.74,2.9-.4.86-.93,1.6-1.58,2.2-.65.61-1.42,1.07-2.3,1.39-.88.32-1.84.48-2.9.48-1.31,0-2.49-.23-3.53-.68-1.05-.45-1.93-1.08-2.65-1.88-.72-.8-1.27-1.74-1.65-2.81-.38-1.08-.57-2.24-.57-3.48s.19-2.46.57-3.56c.38-1.09.93-2.05,1.65-2.86.72-.81,1.6-1.45,2.65-1.92C6.97.23,8.15,0,9.46,0,10.4,0,11.29.14,12.13.41c.84.27,1.59.67,2.25,1.19.66.52,1.21,1.16,1.64,1.93.43.77.7,1.64.81,2.63h-3.64c-.06-.43-.21-.83-.43-1.18Z"/>
    <path class="cls-1" d="m21.88,14.53c.51.49,1.25.74,2.2.74.69,0,1.28-.17,1.77-.51.49-.34.8-.71.91-1.09h2.99c-.48,1.49-1.21,2.55-2.2,3.19-.99.64-2.19.96-3.59.96-.97,0-1.85-.16-2.63-.47-.78-.31-1.44-.75-1.99-1.33-.54-.57-.96-1.26-1.26-2.06-.3-.8-.44-1.68-.44-2.63s.15-1.79.45-2.59c.3-.8.73-1.49,1.29-2.07.56-.58,1.23-1.04,2-1.38.77-.34,1.63-.5,2.57-.5,1.05,0,1.97.2,2.75.61.78.41,1.42.95,1.93,1.64.5.69.87,1.47,1.09,2.35.22.88.3,1.8.24,2.75h-8.93c.05,1.1.33,1.9.84,2.39Zm3.84-6.51c-.41-.45-1.03-.67-1.86-.67-.54,0-.99.09-1.35.28-.36.18-.65.41-.86.68-.22.27-.37.56-.46.86-.09.3-.14.57-.15.81h5.53c-.16-.86-.44-1.52-.85-1.96Z"/>
    <path class="cls-1" d="m34.74,5.12v2.3h.05c.16-.38.37-.74.65-1.07.27-.33.58-.61.93-.84.35-.23.73-.41,1.13-.54.4-.13.81-.19,1.24-.19.22,0,.47.04.74.12v3.16c-.16-.03-.35-.06-.58-.08-.22-.02-.44-.04-.65-.04-.62,0-1.15.1-1.58.31-.43.21-.78.49-1.04.85-.26.36-.45.78-.56,1.26-.11.48-.17,1-.17,1.56v5.58h-3.4V5.12h3.23Z"/>
    <path class="cls-1" d="m48.58,5.12v2.27h-2.49v6.13c0,.58.1.96.29,1.15.19.19.57.29,1.15.29.19,0,.38,0,.55-.02.18-.02.34-.04.5-.07v2.63c-.29.05-.61.08-.96.1-.35.02-.69.02-1.03.02-.53,0-1.03-.04-1.5-.11-.47-.07-.88-.21-1.24-.42-.36-.21-.64-.5-.85-.89-.21-.38-.31-.89-.31-1.51v-7.3h-2.06v-2.27h2.06V1.41h3.4v3.71h2.49Z"/>
    <path class="cls-1" d="m50.56,3.21V.41h3.4v2.8h-3.4Zm3.4,1.92v12.38h-3.4V5.12h3.4Z"/>
    <path class="cls-1" d="m55.31,7.4v-2.27h2.04v-.96c0-1.1.34-2,1.03-2.7.69-.7,1.72-1.05,3.11-1.05.3,0,.61.01.91.04.3.02.6.04.88.06v2.54c-.4-.05-.81-.07-1.24-.07-.46,0-.79.11-.99.32-.2.22-.3.58-.3,1.09v.74h2.35v2.27h-2.35v10.1h-3.4V7.4h-2.04Z"/>
    <path class="cls-1" d="m65.39,3.21V.41h3.4v2.8h-3.4Zm3.4,1.92v12.38h-3.4V5.12h3.4Z"/>
    <path class="cls-1" d="m74.16,14.53c.51.49,1.25.74,2.2.74.69,0,1.28-.17,1.77-.51.49-.34.8-.71.91-1.09h2.99c-.48,1.49-1.21,2.55-2.2,3.19-.99.64-2.19.96-3.59.96-.98,0-1.85-.16-2.63-.47-.78-.31-1.45-.75-1.99-1.33-.54-.57-.96-1.26-1.26-2.06-.29-.8-.44-1.68-.44-2.63s.15-1.79.46-2.59c.3-.8.73-1.49,1.29-2.07.56-.58,1.22-1.04,2-1.38.77-.34,1.63-.5,2.57-.5,1.05,0,1.97.2,2.75.61.78.41,1.42.95,1.93,1.64.5.69.87,1.47,1.09,2.35.22.88.3,1.8.24,2.75h-8.93c.05,1.1.33,1.9.84,2.39Zm3.84-6.51c-.41-.45-1.03-.67-1.85-.67-.54,0-.99.09-1.35.28-.36.18-.65.41-.86.68-.22.27-.37.56-.46.86-.09.3-.14.57-.15.81h5.53c-.16-.86-.44-1.52-.85-1.96Z"/>
    <path class="cls-1" d="m92.57,15.92c-.4.67-.92,1.15-1.57,1.45-.65.3-1.38.44-2.19.44-.93,0-1.74-.18-2.44-.54-.7-.36-1.28-.85-1.74-1.46-.46-.61-.8-1.32-1.03-2.12-.23-.8-.35-1.63-.35-2.49s.11-1.63.35-2.41c.23-.77.57-1.46,1.03-2.05.45-.59,1.03-1.06,1.71-1.42.69-.36,1.48-.54,2.4-.54.73,0,1.43.15,2.09.47.66.31,1.19.77,1.57,1.38h.05V.41h3.4v17.1h-3.23v-1.58h-.05Zm-.14-6.12c-.09-.47-.26-.89-.49-1.25-.23-.36-.53-.65-.9-.87-.37-.22-.83-.33-1.39-.33s-1.03.11-1.41.33c-.38.22-.69.52-.92.89-.23.37-.4.79-.5,1.26-.1.47-.15.96-.15,1.47,0,.48.05.96.17,1.44.11.48.29.91.54,1.28.25.38.56.68.94.91.37.23.83.35,1.35.35.56,0,1.03-.11,1.4-.33.37-.22.67-.52.9-.9.22-.37.38-.8.48-1.28.1-.48.14-.97.14-1.48s-.05-1-.14-1.47Z"/>
  </g>
  <g>
    <path class="cls-1" d="m9.6,148.94c-.17-1.2-1.32-2.11-2.63-2.11-2.38,0-3.27,2.03-3.27,4.13s.9,4.03,3.27,4.03c1.62,0,2.53-1.11,2.73-2.7h2.57c-.27,3-2.35,4.92-5.3,4.92-3.72,0-5.92-2.78-5.92-6.25s2.19-6.36,5.92-6.36c2.65,0,4.87,1.55,5.19,4.33h-2.56Z"/>
    <path class="cls-1" d="m17.79,147.98c2.75,0,4.52,1.82,4.52,4.6s-1.77,4.59-4.52,4.59-4.5-1.82-4.5-4.59,1.77-4.6,4.5-4.6Zm0,7.38c1.64,0,2.12-1.4,2.12-2.78s-.49-2.8-2.12-2.8-2.11,1.4-2.11,2.8.49,2.78,2.11,2.78Z"/>
    <path class="cls-1" d="m23.79,148.2h2.27v1.62h.04c.44-1.1,1.62-1.85,2.78-1.85.17,0,.37.03.52.08v2.23c-.22-.05-.57-.08-.86-.08-1.76,0-2.36,1.26-2.36,2.8v3.93h-2.39v-8.72Z"/>
    <path class="cls-1" d="m30.34,148.21h2.28v1.11h.03c.57-.93,1.52-1.35,2.59-1.35,2.73,0,3.96,2.21,3.96,4.69,0,2.33-1.28,4.5-3.83,4.5-1.04,0-2.04-.46-2.61-1.32h-.04v4.15h-2.39v-11.79Zm6.47,4.38c0-1.39-.56-2.82-2.09-2.82s-2.07,1.4-2.07,2.82.54,2.76,2.09,2.76,2.07-1.35,2.07-2.76Z"/>
    <path class="cls-1" d="m44.46,147.98c2.75,0,4.52,1.82,4.52,4.6s-1.77,4.59-4.52,4.59-4.5-1.82-4.5-4.59,1.77-4.6,4.5-4.6Zm0,7.38c1.64,0,2.13-1.4,2.13-2.78s-.49-2.8-2.13-2.8-2.11,1.4-2.11,2.8.49,2.78,2.11,2.78Z"/>
    <path class="cls-1" d="m50.46,148.2h2.28v1.62h.04c.44-1.1,1.62-1.85,2.78-1.85.17,0,.37.03.52.08v2.23c-.22-.05-.57-.08-.86-.08-1.75,0-2.36,1.26-2.36,2.8v3.93h-2.39v-8.72Z"/>
    <path class="cls-1" d="m56.78,150.9c.14-2.24,2.14-2.92,4.1-2.92,1.74,0,3.83.39,3.83,2.48v4.54c0,.79.08,1.58.31,1.94h-2.43c-.08-.27-.15-.56-.17-.84-.76.79-1.87,1.08-2.93,1.08-1.65,0-2.97-.83-2.97-2.61,0-1.97,1.49-2.44,2.97-2.65,1.47-.22,2.83-.17,2.83-1.15s-.71-1.18-1.55-1.18c-.91,0-1.5.37-1.59,1.32h-2.4Zm5.53,1.77c-.41.36-1.25.37-1.99.51-.74.15-1.42.41-1.42,1.28s.69,1.11,1.47,1.11c1.87,0,1.94-1.48,1.94-2.01v-.89Z"/>
    <path class="cls-1" d="m69.54,148.21h1.75v1.6h-1.75v4.31c0,.81.2,1.01,1.01,1.01.25,0,.49-.02.74-.07v1.87c-.41.07-.93.08-1.4.08-1.46,0-2.74-.34-2.74-2.08v-5.14h-1.45v-1.6h1.45v-2.61h2.39v2.61Z"/>
    <path class="cls-1" d="m75.5,146.86h-2.39v-1.97h2.39v1.97Zm-2.39,1.35h2.39v8.72h-2.39v-8.72Z"/>
    <path class="cls-1" d="m81.6,147.98c2.75,0,4.52,1.82,4.52,4.6s-1.77,4.59-4.52,4.59-4.5-1.82-4.5-4.59,1.77-4.6,4.5-4.6Zm0,7.38c1.64,0,2.13-1.4,2.13-2.78s-.49-2.8-2.13-2.8-2.11,1.4-2.11,2.8.49,2.78,2.11,2.78Z"/>
    <path class="cls-1" d="m87.67,148.21h2.28v1.21h.05c.61-.98,1.65-1.45,2.67-1.45,2.55,0,3.19,1.43,3.19,3.59v5.36h-2.39v-4.92c0-1.43-.42-2.14-1.53-2.14-1.3,0-1.86.73-1.86,2.5v4.57h-2.39v-8.72Z"/>
  </g>
</svg>