<?xml version="1.0" encoding="UTF-8"?>
<svg id="Editable_text" data-name="Editable text" xmlns="http://www.w3.org/2000/svg" viewBox="0 0 708.34 563.38">
  <defs>
    <style>
      .cls-1 {
        fill: #fff;
      }
    </style>
  </defs>
  <path class="cls-1" d="M354.17,563.38c-94.06,0-182.61-28.95-249.33-81.52-32.74-25.79-58.47-55.89-76.5-89.47C9.53,357.36,0,320.12,0,281.69s9.53-75.67,28.34-110.69c18.03-33.58,43.76-63.68,76.5-89.47C171.56,28.95,260.11,0,354.17,0s182.6,28.95,249.33,81.52c32.74,25.79,58.48,55.89,76.5,89.47,18.8,35.02,28.34,72.27,28.34,110.69s-9.53,75.67-28.34,110.69c-18.03,33.58-43.77,63.68-76.5,89.47-66.73,52.57-155.28,81.52-249.33,81.52ZM354.17,25C172.67,25,25,140.15,25,281.69s147.67,256.69,329.17,256.69,329.17-115.15,329.17-256.69S535.67,25,354.17,25Z"/>
  <path class="cls-1" d="M591.66,199.67c-20.82-34.12-54.02-62.91-96.01-83.24-42.85-20.75-92.61-31.48-143.89-31.03-50.11.44-98.72,11.56-140.57,32.16-40.95,20.16-73.62,48.4-94.5,81.67-1.61,2.57-.84,5.97,1.74,7.58.92.58,1.95.85,2.97.84,1.81-.02,3.58-.93,4.62-2.58,19.79-31.54,50.93-58.39,90.04-77.64,40.37-19.88,87.33-30.61,135.8-31.03,99.05-.86,189.49,41.92,230.41,109,1.05,1.71,2.88,2.65,4.75,2.64.96,0,1.93-.27,2.81-.81,2.59-1.58,3.41-4.97,1.83-7.56Z"/>
  <path class="cls-1" d="M589.88,348.06c-2.57-1.61-5.97-.83-7.58,1.75-19.73,31.57-50.82,58.47-89.91,77.8-40.34,19.95-87.28,30.76-135.75,31.27-99.05,1.04-189.56-41.59-230.6-108.6-1.59-2.59-4.97-3.4-7.56-1.82-2.59,1.59-3.4,4.97-1.82,7.56,20.88,34.09,54.13,62.81,96.15,83.07,42.88,20.67,92.66,31.32,143.94,30.78,50.11-.52,98.7-11.73,140.51-32.4,40.91-20.23,73.54-48.53,94.36-81.83,1.61-2.58.83-5.97-1.75-7.58Z"/>
  <polygon class="cls-1" points="242.23 187.86 232.73 237.29 232.6 237.29 222.56 187.86 203.49 187.86 193.55 237.29 193.44 237.29 183.93 187.86 162.31 187.86 180.68 267.49 202.41 267.49 212.62 218.71 212.73 218.71 223.15 267.49 244.65 267.49 263.02 187.86 242.23 187.86"/>
  <g>
    <path class="cls-1" d="M170.97,333.79c-1.13-1.32-1.64-2.52-2.02-4.6l-1.13-5.61c-.82-3.59-2.58-4.6-5.86-4.6h-6.24v14.81h-10.4v-42.09h19.15c9.7,0,15.62,3.97,15.62,12.47,0,6.24-4.35,9.95-9.07,10.52v.13c3.78.63,5.99,2.71,6.99,6.74l1.7,7.25c.5,2.02,1.26,3.53,2.58,4.98h-11.34ZM163.34,300.28h-7.62v10.46h7.69c3.78,0,5.73-1.7,5.73-5.36,0-3.28-1.83-5.1-5.8-5.1Z"/>
    <path class="cls-1" d="M204.67,322.77l8.44,2.9c-1.95,6.17-7.69,8.88-13.86,8.88-9.58,0-15.75-6.11-15.75-16.38s6.05-17.01,16-17.01c9.33,0,13.86,6.43,13.86,14.3,0,1.32-.25,3.15-.57,4.22h-19.34c.06,4.54,2.46,7.18,5.99,7.18,2.58,0,4.41-1.26,5.23-4.09ZM203.66,314.77c.13-.44.13-.94.13-1.45,0-2.58-1.58-4.85-4.54-4.85-3.21,0-5.35,2.39-5.67,6.3h10.08Z"/>
    <path class="cls-1" d="M232.89,301.16c7.94,0,12.98,4.35,13.61,10.84l-8.95,1.95c-.25-2.9-1.58-5.17-4.47-5.17-3.84,0-5.54,3.65-5.54,9.07,0,5.73,1.83,9.01,5.54,9.01,2.58,0,4.28-1.89,4.6-5.1l9.01,2.77c-1.2,6.24-6.43,10.02-13.55,10.02-9.7,0-15.94-6.3-15.94-16.7s6.24-16.7,15.69-16.7Z"/>
    <path class="cls-1" d="M265.78,334.55c-9.58,0-16.07-6.05-16.07-16.7s6.49-16.7,16.07-16.7,16,5.99,16,16.7-6.49,16.7-16,16.7ZM265.78,308.72c-3.97,0-5.73,3.28-5.73,9.14s1.76,9.07,5.73,9.07,5.67-3.21,5.67-9.07-1.76-9.14-5.67-9.14Z"/>
    <path class="cls-1" d="M325.13,301.16c5.67,0,9.89,3.4,9.89,10.21v22.43h-10.46v-19.03c0-3.15-.95-4.98-4.03-4.98-2.58,0-4.91,1.89-4.91,6.68v17.33h-10.4v-19.03c0-3.15-1.01-4.98-4.03-4.98-2.65,0-4.92,1.89-4.92,6.68v17.33h-10.4v-31.88h8.88l1.26,6.11c1.45-4.47,5.29-6.87,9.77-6.87s8.13,2.33,9.39,6.74c1.58-4.28,5.42-6.74,9.96-6.74Z"/>
    <path class="cls-1" d="M379.87,301.16c5.67,0,9.89,3.4,9.89,10.21v22.43h-10.46v-19.03c0-3.15-.95-4.98-4.03-4.98-2.58,0-4.91,1.89-4.91,6.68v17.33h-10.4v-19.03c0-3.15-1.01-4.98-4.03-4.98-2.65,0-4.92,1.89-4.92,6.68v17.33h-10.4v-31.88h8.88l1.26,6.11c1.45-4.47,5.29-6.87,9.77-6.87s8.13,2.33,9.39,6.74c1.58-4.28,5.42-6.74,9.96-6.74Z"/>
    <path class="cls-1" d="M414.71,322.77l8.44,2.9c-1.95,6.17-7.69,8.88-13.86,8.88-9.58,0-15.75-6.11-15.75-16.38s6.05-17.01,16-17.01c9.33,0,13.86,6.43,13.86,14.3,0,1.32-.25,3.15-.57,4.22h-19.34c.06,4.54,2.46,7.18,5.99,7.18,2.58,0,4.41-1.26,5.23-4.09ZM413.7,314.77c.13-.44.13-.94.13-1.45,0-2.58-1.58-4.85-4.54-4.85-3.21,0-5.35,2.39-5.67,6.3h10.08Z"/>
    <path class="cls-1" d="M436.38,308.02c1.58-4.41,5.42-6.87,10.21-6.87,5.73,0,9.95,3.53,9.95,10.33v22.3h-10.4v-18.96c0-3.15-1.13-5.04-4.16-5.04s-5.36,1.89-5.36,6.74v17.26h-10.4v-31.88h8.88l1.26,6.11Z"/>
    <path class="cls-1" d="M482.81,327.93c-1.32,4.35-5.04,6.62-9.64,6.62-7.12,0-12.79-5.86-12.79-16,0-11.15,5.42-17.39,13.42-17.39,4.47,0,7.62,1.95,8.76,4.85v-17.7h10.46v45.49h-9.01l-1.2-5.86ZM482.56,315.33c0-4.47-2.71-6.62-5.48-6.62-3.78,0-6.05,3.15-6.05,9.45,0,5.42,2.27,8.32,5.86,8.32,3.09,0,5.67-2.39,5.67-7.37v-3.78Z"/>
    <path class="cls-1" d="M518.28,322.77l8.44,2.9c-1.95,6.17-7.69,8.88-13.86,8.88-9.58,0-15.75-6.11-15.75-16.38s6.05-17.01,16-17.01c9.33,0,13.86,6.43,13.86,14.3,0,1.32-.25,3.15-.57,4.22h-19.34c.06,4.54,2.46,7.18,5.99,7.18,2.58,0,4.41-1.26,5.23-4.09ZM517.27,314.77c.13-.44.13-.94.13-1.45,0-2.58-1.58-4.85-4.54-4.85-3.21,0-5.35,2.39-5.67,6.3h10.08Z"/>
    <path class="cls-1" d="M553.24,327.93c-1.32,4.35-5.04,6.62-9.64,6.62-7.12,0-12.79-5.86-12.79-16,0-11.15,5.42-17.39,13.42-17.39,4.47,0,7.62,1.95,8.76,4.85v-17.7h10.46v45.49h-9.01l-1.2-5.86ZM552.99,315.33c0-4.47-2.71-6.62-5.48-6.62-3.78,0-6.05,3.15-6.05,9.45,0,5.42,2.27,8.32,5.86,8.32,3.09,0,5.67-2.39,5.67-7.37v-3.78Z"/>
    <path class="cls-1" d="M246.91,382.63v13.17h-10.58v-42.09h17.45c10.14,0,16.13,5.23,16.13,14.49s-6.55,14.43-16.13,14.43h-6.87ZM252.52,362.09h-5.61v12.29h5.61c4.47,0,6.49-2.14,6.49-6.11s-1.95-6.17-6.49-6.17Z"/>
    <path class="cls-1" d="M295.92,373.93c-1.01-.44-2.46-.69-3.97-.69-3.78,0-6.93,2.46-6.93,7.88v14.68h-10.4v-31.88h9.01l1.2,7.25c1.26-5.42,5.54-8.82,11.59-7.75l-.5,10.52Z"/>
    <path class="cls-1" d="M314.7,396.55c-9.58,0-16.07-6.05-16.07-16.7s6.49-16.7,16.07-16.7,16,5.99,16,16.7-6.49,16.7-16,16.7ZM314.7,370.72c-3.97,0-5.73,3.28-5.73,9.14s1.76,9.07,5.73,9.07,5.67-3.21,5.67-9.07-1.76-9.14-5.67-9.14Z"/>
    <path class="cls-1" d="M347.71,384.45l6.62-20.54h9.96l-11.72,31.88h-10.21l-11.72-31.88h10.84l6.11,20.54h.13Z"/>
    <path class="cls-1" d="M373.6,360.51c-3.15,0-6.05-2.02-6.05-5.54s2.9-5.61,6.05-5.61,6.05,2.02,6.05,5.61-2.9,5.54-6.05,5.54ZM378.77,363.91v31.88h-10.4v-31.88h10.4Z"/>
    <path class="cls-1" d="M405.29,389.93c-1.32,4.35-5.04,6.62-9.64,6.62-7.12,0-12.79-5.86-12.79-16,0-11.15,5.42-17.39,13.42-17.39,4.47,0,7.62,1.95,8.76,4.85v-17.7h10.46v45.49h-9.01l-1.2-5.86ZM405.04,377.33c0-4.47-2.71-6.62-5.48-6.62-3.78,0-6.05,3.15-6.05,9.45,0,5.42,2.27,8.32,5.86,8.32,3.09,0,5.67-2.39,5.67-7.37v-3.78Z"/>
    <path class="cls-1" d="M440.7,384.77l8.44,2.9c-1.95,6.17-7.69,8.88-13.86,8.88-9.58,0-15.75-6.11-15.75-16.38s6.05-17.01,16-17.01c9.33,0,13.86,6.43,13.86,14.3,0,1.32-.25,3.15-.57,4.22h-19.34c.06,4.54,2.46,7.18,5.99,7.18,2.58,0,4.41-1.26,5.23-4.09ZM439.69,376.77c.13-.44.13-.94.13-1.45,0-2.58-1.58-4.85-4.54-4.85-3.21,0-5.35,2.39-5.67,6.3h10.08Z"/>
    <path class="cls-1" d="M474.72,373.93c-1.01-.44-2.46-.69-3.97-.69-3.78,0-6.93,2.46-6.93,7.88v14.68h-10.4v-31.88h9.01l1.2,7.25c1.26-5.42,5.54-8.82,11.59-7.75l-.5,10.52Z"/>
  </g>
  <path class="cls-1" d="M507.41,240.81v-2.09c0-7.74,3.3-12.71,8.12-17.06.92-.82,1.86-1.58,2.78-2.32,3.2-2.57,6.01-4.92,6.01-8.56,0-4.17-2.79-6.65-7.23-6.65-4.05,0-7.14,2.57-8.48,7.06l-.16.56h-19.82c1.46-16.29,13.85-25.23,30.13-25.23s26.56,8.84,26.56,21.92c0,8.92-4.97,13.4-9.37,17.36-5.31,4.86-7.86,8.55-7.96,12.93l-.02,2.07h-20.55Z"/>
  <rect class="cls-1" x="482.99" y="249.36" width="44.97" height="18.11"/>
  <path class="cls-1" d="M452.9,267.49v-34.36c0-8.45-8.4-10.87-12.58-3.19-1.45,2.66-2.13,6.54-2.13,11.79v25.76h-20.38v-79.63h20.38v34.75c6.8-14.4,22.79-16.24,30.69-7.49,2.87,3.18,4.41,7.76,4.41,13.64v38.73h-20.38Z"/>
  <path class="cls-1" d="M302.91,267.49v-34.36c0-8.45-8.4-10.87-12.58-3.19-1.45,2.66-2.13,6.54-2.13,11.79v25.76h-20.38v-79.63h20.38v34.75c6.8-14.4,22.79-16.24,30.69-7.49,2.87,3.18,4.41,7.76,4.41,13.64v38.73h-20.38Z"/>
  <rect class="cls-1" x="331.22" y="211.27" width="20.38" height="56.21"/>
  <path class="cls-1" d="M412.23,246.66c-.87,12.65-10.42,22.26-25.31,22.26-17.97,0-29.12-11.31-29.12-29.53s11.25-29.53,28.68-29.53c13.74,0,24.38,6.88,25.49,22.19h-17.67c-.77-3.77-2.85-7.7-7.76-7.7-7.83,0-9.08,9.62-9.08,15.04,0,6.57,1.82,14.97,9.05,14.97,3.61,0,6.38-2.87,7.76-7.69h17.97Z"/>
  <path class="cls-1" d="M341.4,207.53c-5.62,0-11.31-3.59-11.31-10.45s5.69-10.55,11.31-10.55,11.3,3.62,11.3,10.55-5.69,10.45-11.3,10.45"/>
  <g>
    <path class="cls-1" d="M208.67,73.35l8-3.36c6.79-2.85,12.71-.62,16.2,7.68,3.47,8.26.9,14.11-5.85,16.95l-8,3.37-10.36-24.63ZM222.8,90.76l2.03-.85c3.17-1.33,4.28-4.36,2.04-9.71-2.26-5.38-5.18-6.63-8.35-5.3l-2.03.85,6.31,15.01Z"/>
    <path class="cls-1" d="M257.73,83.38l-15.52,5.17-8.45-25.35,15.49-5.16,1.64,4.93-9.68,3.22,1.77,5.31,8.42-2.81,1.52,4.55-8.42,2.81,1.87,5.62,9.71-3.24,1.64,4.93Z"/>
    <path class="cls-1" d="M264.88,53.35c4.92-1.27,8.75.8,10.83,5.01l-4.98,3.43c-.95-2.23-2.43-3.79-4.56-3.24-2.63.68-3.52,3.8-2.12,9.22,1.4,5.42,3.7,7.76,6.33,7.08,2.13-.55,2.68-2.72,2.39-5.12l6.02.59c.22,4.69-2.13,8.4-7.05,9.67-6.47,1.67-11.81-2.07-14.01-10.59-2.2-8.52.67-14.38,7.13-16.05Z"/>
    <path class="cls-1" d="M300.73,73.49l-16.08,3.01-4.91-26.26,16.04-3,.96,5.11-10.03,1.87,1.03,5.5,8.73-1.63.88,4.72-8.73,1.63,1.09,5.82,10.06-1.88.96,5.11Z"/>
    <path class="cls-1" d="M318.27,64.85l-3.42.38-5.16-9.93h-.08s.63,5.33.63,5.33l1.26,11.37-5.92.65-2.93-26.55,6.76-.75,6.28,11.66h.12s3.58-12.76,3.58-12.76l6.64-.73,2.93,26.56-5.92.65-1.26-11.37-.55-5.33h-.08s-2.87,10.83-2.87,10.83Z"/>
    <path class="cls-1" d="M347.71,55.7c3.26.45,5.26,2.66,5.38,6.06.15,4.36-2.5,7.45-8.5,7.66l-10.16.36-.94-26.71,10.04-.35c5.24-.18,8.13,2.4,8.28,6.75.12,3.36-1.57,5.5-4.11,6.15v.08ZM339.93,54.14l2.76-.1c2.16-.08,3.12-1.15,3.04-3.35-.08-2.2-1.07-3.2-3.23-3.13l-2.8.1.23,6.48ZM340.31,64.81l3.24-.11c2.32-.08,3.28-1.24,3.2-3.4-.07-2.12-1.15-3.24-3.43-3.16l-3.24.11.23,6.56Z"/>
    <path class="cls-1" d="M374.12,69.63l-16.36-.46.75-26.71,16.32.46-.15,5.2-10.2-.29-.16,5.6,8.88.25-.13,4.8-8.88-.25-.17,5.92,10.24.29-.15,5.2Z"/>
    <path class="cls-1" d="M393.02,71.22c-.49-.81-.72-1.71-.8-2.97l-.29-4.2c-.2-2.11-1.1-2.84-2.85-3l-2.83-.27-.92,9.71-6.21-.59,2.52-26.6,10.35.98c5.85.55,8.83,3.49,8.34,8.66-.37,3.86-3.05,5.9-5.8,6.08v.08c2.11.6,3.33,2.04,3.58,4.56l.46,4.94c.16,1.26.47,2.29,1.06,3.23l-6.61-.63ZM390.8,49.27l-3.42-.32-.66,7.01,3.42.32c2.39.23,3.46-.88,3.68-3.23.21-2.23-.59-3.55-3.02-3.78Z"/>
    <path class="cls-1" d="M429.68,77.15l-17.28-3.35.85-4.4c8.4-5.05,12.76-7.38,13.59-11.67.4-2.08-.37-3.58-2.09-3.91-1.65-.32-2.92.78-3.26,2.51-.19.98.03,1.76.33,2.51l-5.41,1.19c-.67-1.35-.94-3.12-.56-5.08.79-4.05,4.58-7.22,10.08-6.15,5.42,1.05,7.96,4.97,6.99,9.96-1.05,5.42-6.62,8.9-11.59,11.44l9.35,1.81-1,5.15Z"/>
    <path class="cls-1" d="M455.3,69.98c-2.15,8.08-6.93,12.4-13.08,10.76-6.15-1.63-8.16-7.76-6.02-15.83,2.15-8.08,6.93-12.4,13.08-10.76,6.15,1.63,8.16,7.75,6.02,15.83ZM449.31,68.39c1.41-5.29,1.19-8.37-1.4-9.06-2.63-.7-4.31,1.88-5.71,7.17-1.41,5.3-1.23,8.36,1.4,9.06,2.59.69,4.31-1.88,5.71-7.17Z"/>
    <path class="cls-1" d="M471.83,89.65l-16.65-5.71,1.45-4.24c9.02-3.84,13.66-5.55,15.08-9.68.69-2,.13-3.59-1.53-4.16-1.59-.55-3,.37-3.57,2.03-.32.95-.22,1.74-.02,2.53l-5.52.43c-.48-1.43-.5-3.22.14-5.11,1.34-3.9,5.53-6.52,10.83-4.7,5.22,1.79,7.2,6.02,5.55,10.83-1.79,5.22-7.79,7.9-13.06,9.73l9.01,3.09-1.7,4.96Z"/>
    <path class="cls-1" d="M486.91,66.9l13.19,5.58-2.03,4.79-8.69-3.68-2.45,5.08c1.03-.39,2.59-.47,4.13.19,4.09,1.73,5.28,5.88,3.34,10.49-2.35,5.56-7.48,7-12.12,5.04-4.64-1.96-6.57-6.04-5.42-10.07l5.78.49c-.79,2.27-.25,4.19,1.63,4.99,1.84.78,3.5-.17,4.58-2.71.97-2.28.56-4.1-1.17-4.84-1.1-.47-2.11-.15-2.79.34l-4.53-1.92,6.56-13.77Z"/>
  </g>
  <g>
    <path class="cls-1" d="M132.83,443.55l15.95-19.18-6.12-5.09,2.84-3.42,16.31,13.56-2.84,3.42-6.12-5.09-15.95,19.18-4.06-3.38Z"/>
    <path class="cls-1" d="M163.04,457.2l-7.71-5.33-5.85,4.83-4.16-2.88,23.96-19.17,5.1,3.53-9.48,29.18-4.31-2.98,2.45-7.18ZM158.57,449.19l5.83,4.03,4.14-12.17-.07-.05-9.89,8.19Z"/>
    <path class="cls-1" d="M190.18,448.06l-14.97,25.29-4.5-2.67,14.97-25.29,4.5,2.67Z"/>
    <path class="cls-1" d="M200.77,453.89l-11.41,22.18,10.05,5.17-2.03,3.95-14.71-7.57,13.44-26.13,4.66,2.39Z"/>
    <path class="cls-1" d="M228.85,482.77c-3.69,8.8-9.87,12.27-16.52,9.48-6.61-2.77-8.51-9.63-4.82-18.43,3.69-8.8,9.91-12.26,16.52-9.48,6.65,2.79,8.51,9.63,4.82,18.43ZM212.58,475.94c-2.59,6.17-2.29,10.68,1.45,12.25,3.77,1.58,7.2-1.37,9.79-7.54,2.59-6.17,2.28-10.68-1.49-12.26-3.73-1.57-7.16,1.38-9.75,7.55Z"/>
    <path class="cls-1" d="M245.14,503.67c-.34-.94-.35-1.92-.15-3.24l.62-5.07c.34-2.9-.74-3.99-3.09-4.75l-3.6-1.17-3.58,11.05-4.94-1.6,9.05-27.97,9.84,3.18c6.15,1.99,8.19,5.84,6.54,10.95-1.35,4.19-4.9,5.72-7.94,5.11l-.03.08c2.22,1.14,3.14,3.01,2.85,5.92l-.6,5.59c-.16,1.34-.05,2.57.35,3.63l-5.32-1.72ZM247.46,478.06l-4.4-1.42-2.86,8.83,4.4,1.42c3.22,1.04,4.95-.16,5.89-3.04.88-2.72.24-4.73-3.03-5.79Z"/>
    <path class="cls-1" d="M258.29,492.95l10.1,2.61-1.11,4.3-10.1-2.61,1.11-4.3Z"/>
    <path class="cls-1" d="M286.99,506.5l-3.2-.6-2.83-14.99-.13-.02-1.01,5.63-2.87,15.31-4.89-.92,5.41-28.89,5.92,1.11,3.26,16.5.13.02,9.06-14.19,5.71,1.07-5.41,28.89-4.93-.92,2.87-15.31,1.1-5.61-.09-.02-8.11,12.94Z"/>
    <path class="cls-1" d="M320.11,510.8l-9.32-.96-2.8,7.06-5.03-.52,11.75-28.35,6.17.63,5.76,30.14-5.21-.53-1.31-7.48ZM312.34,505.93l7.05.72-2.24-12.66h-.09s-4.72,11.94-4.72,11.94Z"/>
    <path class="cls-1" d="M334.23,489.8l8.4.23c7.96.22,12.8,5.15,12.52,15.05-.27,9.85-5.38,14.55-13.34,14.33l-8.4-.23.82-29.38ZM338.77,514.92l3.03.08c4.53.13,7.69-2.69,7.89-10.08.21-7.43-2.79-10.38-7.32-10.5l-3.03-.08-.57,20.58Z"/>
    <path class="cls-1" d="M379.04,518.91l-16.88.69-1.2-29.37,16.84-.69.18,4.44-11.74.48.32,7.91,10.24-.42.17,4.22-10.24.42.34,8.35,11.78-.48.18,4.44Z"/>
    <path class="cls-1" d="M398.36,517.22l-4.19-29.09,5.18-.75,1.75,12.15,10.58-1.52-1.75-12.15,5.18-.75,4.19,29.09-5.18.75-1.8-12.5-10.58,1.52,1.8,12.5-5.18.75Z"/>
    <path class="cls-1" d="M446.14,493.38c2.12,9.31-.89,15.73-7.93,17.33-6.99,1.59-12.52-2.88-14.64-12.19-2.12-9.31.93-15.74,7.92-17.33,7.04-1.6,12.53,2.88,14.64,12.19ZM428.94,497.3c1.48,6.52,4.36,10.02,8.3,9.12,3.99-.91,5.07-5.31,3.58-11.83-1.48-6.52-4.36-10.02-8.35-9.11-3.95.9-5.02,5.29-3.54,11.82Z"/>
    <path class="cls-1" d="M452.99,476.01l7.33,23.84,10.81-3.32,1.31,4.25-15.81,4.86-8.63-28.09,5-1.54Z"/>
    <path class="cls-1" d="M473.79,469l10.12,27.59-4.92,1.8-10.12-27.59,4.92-1.8Z"/>
    <path class="cls-1" d="M480.2,466.68l7.69-3.38c7.29-3.21,13.77-.82,17.76,8.24,3.97,9.02,1.37,15.45-5.92,18.66l-7.69,3.38-11.83-26.9ZM495.05,487.44l2.78-1.22c4.15-1.83,5.8-5.72,2.82-12.49-2.99-6.81-6.96-8.18-11.11-6.36l-2.78,1.22,8.29,18.85Z"/>
    <path class="cls-1" d="M526.8,468.58l-8.22,4.5,1.69,7.4-4.44,2.43-6.4-30,5.44-2.98,21.83,21.55-4.59,2.51-5.32-5.41ZM517.64,468.98l6.21-3.4-9.03-9.15-.08.04,2.89,12.51Z"/>
    <path class="cls-1" d="M538.86,450.07l-2.14-13.71,4.48-2.96,2.84,20.05,6.11,9.26-4.37,2.88-6.11-9.25-17.35-10.48,4.66-3.08,11.77,7.37.11-.07Z"/>
    <path class="cls-1" d="M555.38,449.41l2.7-4.11c2.33,2.59,5.57,3.05,7.98,1.14,2.07-1.64,2.68-3.92,1.09-5.92-3.83-4.83-13.2,5.59-19.36-2.17-3.12-3.93-1.98-9.15,2.19-12.46,4.24-3.36,8.72-3.38,12.36.36l-3,3.79c-1.95-2.1-4.61-2.63-6.75-.93-2.03,1.61-2.42,3.89-.97,5.71,3.75,4.72,13.16-5.78,19.45,2.15,3.31,4.17,1.8,9.41-2.41,12.75-4.45,3.53-9.63,3.43-13.27-.31Z"/>
  </g>
</svg>